<svg width="500" height="500" viewBox="0 0 500 500" fill="none" xmlns="http://www.w3.org/2000/svg">
<path d="M248.898 181.557C247.943 169.625 243.469 160.318 235.474 153.636C227.599 146.955 215.608 143.614 199.5 143.614C189.239 143.614 180.827 144.866 174.264 147.372C167.821 149.759 163.048 153.04 159.946 157.216C156.844 161.392 155.233 166.165 155.114 171.534C154.875 175.949 155.651 179.946 157.44 183.526C159.349 186.986 162.332 190.148 166.389 193.011C170.446 195.756 175.636 198.261 181.96 200.528C188.284 202.795 195.801 204.824 204.511 206.614L234.58 213.057C254.864 217.352 272.224 223.02 286.662 230.06C301.099 237.099 312.912 245.392 322.099 254.938C331.287 264.364 338.028 274.983 342.324 286.795C346.739 298.608 349.006 311.494 349.125 325.455C349.006 349.557 342.98 369.96 331.048 386.665C319.116 403.369 302.054 416.077 279.861 424.787C257.787 433.497 231.239 437.852 200.216 437.852C168.358 437.852 140.557 433.139 116.812 423.713C93.1875 414.287 74.8125 399.79 61.6875 380.222C48.6818 360.534 42.1193 335.358 42 304.693H136.5C137.097 315.909 139.901 325.335 144.912 332.972C149.923 340.608 156.963 346.395 166.031 350.332C175.219 354.27 186.136 356.239 198.784 356.239C209.403 356.239 218.293 354.926 225.452 352.301C232.611 349.676 238.04 346.037 241.739 341.384C245.438 336.73 247.347 331.42 247.466 325.455C247.347 319.847 245.497 314.955 241.918 310.778C238.457 306.483 232.73 302.665 224.736 299.324C216.741 295.864 205.943 292.642 192.341 289.659L155.83 281.784C123.375 274.744 97.7812 262.991 79.0483 246.526C60.4347 229.94 51.1875 207.33 51.3068 178.693C51.1875 155.426 57.392 135.082 69.9205 117.662C82.5682 100.122 100.048 86.4602 122.361 76.6761C144.793 66.8921 170.506 62 199.5 62C229.091 62 254.685 66.9517 276.281 76.8551C297.878 86.7585 314.523 100.719 326.216 118.736C338.028 136.634 343.994 157.574 344.114 181.557H248.898Z" fill="#F5F5F5"/>
<path d="M408.116 437.511C394.275 437.511 382.403 432.679 372.499 423.014C362.715 413.23 357.883 401.358 358.002 387.398C357.883 373.795 362.715 362.162 372.499 352.497C382.403 342.832 394.275 338 408.116 338C421.241 338 432.815 342.832 442.837 352.497C452.979 362.162 458.11 373.795 458.229 387.398C458.11 396.705 455.664 405.176 450.891 412.812C446.238 420.33 440.153 426.355 432.636 430.889C425.119 435.304 416.945 437.511 408.116 437.511Z" fill="#F5F5F5"/>
</svg>
