<svg width="1788" height="500" viewBox="0 0 1788 500" fill="none" xmlns="http://www.w3.org/2000/svg">
<path fill-rule="evenodd" clip-rule="evenodd" d="M203.808 96.5309C212.23 103.57 216.943 113.374 217.949 125.943H318.25C318.125 100.679 311.84 78.6199 299.397 59.7662C287.079 40.7868 269.545 26.0809 246.795 15.6486C224.045 5.21618 197.084 0 165.912 0C135.369 0 108.283 5.15335 84.6531 15.46C61.1488 25.7667 42.735 40.1584 29.4118 58.635C16.2142 76.9859 9.67823 98.4163 9.80392 122.926C9.67823 153.092 19.4193 176.91 39.0271 194.382C58.7607 211.727 85.7214 224.107 119.909 231.523L158.371 239.819C172.7 242.961 184.075 246.355 192.496 250C200.917 253.519 206.951 257.541 210.596 262.066C214.366 266.465 216.315 271.619 216.44 277.526C216.315 283.811 214.304 289.404 210.407 294.306C206.511 299.208 200.792 303.042 193.25 305.807C185.709 308.572 176.345 309.955 165.158 309.955C151.835 309.955 140.334 307.881 130.656 303.733C121.104 299.585 113.688 293.489 108.409 285.445C103.13 277.401 100.176 267.471 99.5475 255.656H0C0.125691 287.959 7.03871 314.48 20.7391 335.219C34.5651 355.832 53.9216 371.103 78.8084 381.033C103.821 390.963 133.107 395.927 166.667 395.927C199.346 395.927 227.313 391.34 250.566 382.164C273.944 372.989 291.918 359.603 304.487 342.006C317.056 324.409 323.404 302.916 323.529 277.526C323.404 262.82 321.015 249.246 316.365 236.802C311.84 224.359 304.738 213.172 295.06 203.243C285.382 193.187 272.939 184.452 257.73 177.036C242.521 169.62 224.233 163.65 202.866 159.125L171.191 152.338C162.016 150.452 154.097 148.316 147.436 145.928C140.774 143.539 135.307 140.9 131.033 138.009C126.76 134.992 123.617 131.662 121.606 128.017C119.721 124.246 118.904 120.035 119.155 115.385C119.281 109.728 120.978 104.701 124.246 100.302C127.514 95.9024 132.541 92.4459 139.329 89.9321C146.242 87.2926 155.103 85.9728 165.912 85.9728C182.881 85.9728 195.513 89.4922 203.808 96.5309ZM437.13 228.507V391.403H333.058V5.27905H433.36V156.863H436.376C442.912 138.386 453.784 123.994 468.993 113.688C484.202 103.255 502.49 98.0392 523.857 98.0392C544.345 98.0392 562.13 102.69 577.213 111.991C592.422 121.292 604.174 134.113 612.47 150.452C620.891 166.792 625.039 185.52 624.913 206.636V391.403H520.841V228.507C520.966 214.178 517.384 202.929 510.094 194.759C502.93 186.589 492.686 182.504 479.363 182.504C470.941 182.504 463.525 184.389 457.115 188.16C450.831 191.805 445.929 197.084 442.409 203.997C439.016 210.784 437.256 218.954 437.13 228.507ZM1464.21 5.27905V391.403H1360.14V5.27905H1464.21ZM1559.35 500C1547.41 500 1536.03 499.057 1525.22 497.172C1514.41 495.412 1504.92 492.961 1496.75 489.819L1519.38 415.913C1527.93 418.929 1535.72 420.877 1542.76 421.757C1549.92 422.637 1556.02 422.134 1561.05 420.249C1566.2 418.364 1569.91 414.781 1572.17 409.502L1574.43 404.223L1472.62 101.81H1581.22L1627.98 302.413H1630.99L1678.5 101.81H1787.86L1682.28 415.535C1677 431.498 1669.33 445.827 1659.27 458.522C1649.34 471.342 1636.27 481.461 1620.06 488.876C1603.84 496.292 1583.61 500 1559.35 500ZM1343.3 177.225V101.81H1293.53V32.4285H1189.46V101.81H1152.51V177.225H1189.46V308.069C1189.21 328.306 1193.17 345.148 1201.34 358.597C1209.51 372.046 1221.7 381.913 1237.91 388.198C1254.13 394.357 1274.17 396.807 1298.06 395.551C1309.87 394.922 1320.05 393.602 1328.6 391.591C1337.27 389.58 1343.93 387.883 1348.58 386.501L1333.5 313.348C1331.49 313.851 1328.35 314.48 1324.07 315.234C1319.93 315.988 1316.28 316.365 1313.14 316.365C1308.61 316.365 1304.91 315.737 1302.02 314.48C1299.12 313.097 1296.99 311.086 1295.6 308.447C1294.22 305.681 1293.53 302.288 1293.53 298.266V177.225H1343.3ZM944.404 391.403V101.81H1045.46V156.863H1048.48C1053.76 136.501 1062.11 121.606 1073.55 112.18C1085.12 102.753 1098.63 98.0393 1114.09 98.0393C1118.61 98.0393 1123.07 98.4164 1127.47 99.1705C1132 99.799 1136.33 100.742 1140.48 101.999V190.799C1135.33 189.04 1128.98 187.72 1121.44 186.84C1113.9 185.96 1107.43 185.52 1102.02 185.52C1091.84 185.52 1082.66 187.846 1074.49 192.496C1066.45 197.021 1060.1 203.431 1055.45 211.727C1050.8 219.897 1048.48 229.512 1048.48 240.573V391.403H944.404ZM703.258 378.017C725.631 390.46 752.529 396.682 783.951 396.682C815.374 396.682 842.272 390.46 864.645 378.017C887.018 365.447 904.175 347.976 916.116 325.603C928.057 303.105 934.027 277.024 934.027 247.361C934.027 217.697 928.057 191.679 916.116 169.306C904.175 146.807 887.018 129.336 864.645 116.893C842.272 104.324 815.374 98.0393 783.951 98.0393C752.529 98.0393 725.631 104.324 703.258 116.893C680.885 129.336 663.728 146.807 651.787 169.306C639.846 191.679 633.876 217.697 633.876 247.361C633.876 277.024 639.846 303.105 651.787 325.603C663.728 347.976 680.885 365.447 703.258 378.017ZM807.519 310.897C801.108 316.805 793.504 319.759 784.706 319.759C775.405 319.759 767.423 316.805 760.761 310.897C754.1 304.99 749.009 296.569 745.49 285.634C741.971 274.698 740.211 261.689 740.211 246.606C740.211 231.398 741.971 218.389 745.49 207.579C749.009 196.644 754.1 188.223 760.761 182.315C767.423 176.408 775.405 173.454 784.706 173.454C793.504 173.454 801.108 176.408 807.519 182.315C813.929 188.223 818.894 196.644 822.413 207.579C825.932 218.389 827.692 231.398 827.692 246.606C827.692 261.689 825.932 274.698 822.413 285.634C818.894 296.569 813.929 304.99 807.519 310.897Z" fill="black"/>
</svg>
